  0
SECTION
  2
HEADER
  9
$ACADVER
  1
AC1009
  9
$INSBASE
 10
0.0
 20
0.0
 30
0.0
  9
$EXTMIN
 10
0.0
 20
0.0
 30
0.0
  9
$EXTMAX
 10
0.0
 20
0.0
 30
0.0
  0
ENDSEC
  0
SECTION
  2
TABLES
  0
TABLE
  2
VPORT
 70
0
  0
ENDTAB
  0
TABLE
  2
LTYPE
 70
1
  0
LTYPE
  2
CONTINUOUS
 70
0
  3
Solid line
 72
65
 73
0
 40
0.0
  0
ENDTAB
  0
TABLE
  2
LAYER
 70
3
  0
LAYER
  2
0
 70
64
 62
7
  6
continuous
  0
LAYER
  2
LAYER1
 70
64
 62
0
  6
continuous
  0
LAYER
  2
LAYER2
 70
64
 62
242
  6
DASHED
  0
ENDTAB
  0
TABLE
  2
STYLE
 70
1
  0
STYLE
  2
STANDARD
 70
0
 40
0
 41
1.0
 50
0.0
 71
0
 42
1
 3
ARIAL.TTF
 4

  0
ENDTAB
  0
TABLE
  2
VIEW
 70
0
  0
ENDTAB
  0
ENDSEC
  0
SECTION
  2
BLOCKS
  0
ENDSEC
  0
SECTION
  2
ENTITIES
  0
POLYLINE
  8
LAYER1
 62
0
 70
1
 66
1
 10
0.0
 20
0.0
 30
0.0
  0
VERTEX
  8
LAYER1
 10
-45.085
 20
-12.7
 30
0.0
  0
VERTEX
  8
LAYER1
 10
45.084999999999994
 20
-12.7
 30
0.0
 42
0.4142135623730978
  0
VERTEX
  8
LAYER1
 10
47.625
 20
-10.16
 30
0.0
  0
VERTEX
  8
LAYER1
 10
47.625
 20
10.16
 30
0.0
 42
0.4142135623730975
  0
VERTEX
  8
LAYER1
 10
45.084999999999994
 20
12.7
 30
0.0
  0
VERTEX
  8
LAYER1
 10
-45.084999999999994
 20
12.7
 30
0.0
 42
0.41421356237309426
  0
VERTEX
  8
LAYER1
 10
-47.625
 20
10.16
 30
0.0
  0
VERTEX
  8
LAYER1
 10
-47.625
 20
-10.16
 30
0.0
 42
0.41421356237309515
  0
SEQEND
  8
LAYER1
  0
CIRCLE
  8
LAYER1
 62
0
 10
0.0
 20
0.0
 30
0.0
 40
1.905
  0
POLYLINE
  8
LAYER1
 62
0
 70
1
 66
1
 10
0.0
 20
0.0
 30
0.0
  0
VERTEX
  8
LAYER1
 10
-38.41752539999999
 20
-2.8575
 30
0.0
  0
VERTEX
  8
LAYER1
 10
-35.55997459999999
 20
-2.8575
 30
0.0
 42
0.4142135623730948
  0
VERTEX
  8
LAYER1
 10
-32.70249999999999
 20
-2.5399999999731193e-05
 30
0.0
  0
VERTEX
  8
LAYER1
 10
-32.70249999999999
 20
2.5400000000175282e-05
 30
0.0
 42
0.4142135623730948
  0
VERTEX
  8
LAYER1
 10
-35.55997459999999
 20
2.8575
 30
0.0
  0
VERTEX
  8
LAYER1
 10
-38.41752539999999
 20
2.8575
 30
0.0
 42
0.4142135623730946
  0
VERTEX
  8
LAYER1
 10
-41.27499999999999
 20
2.5400000000175282e-05
 30
0.0
  0
VERTEX
  8
LAYER1
 10
-41.27499999999999
 20
-2.5399999999731193e-05
 30
0.0
 42
0.4142135623730948
  0
SEQEND
  8
LAYER1
  0
POLYLINE
  8
LAYER1
 62
0
 70
1
 66
1
 10
0.0
 20
0.0
 30
0.0
  0
VERTEX
  8
LAYER1
 10
35.5599746
 20
-2.8575
 30
0.0
  0
VERTEX
  8
LAYER1
 10
38.417525399999995
 20
-2.8575
 30
0.0
 42
0.4142135623730948
  0
VERTEX
  8
LAYER1
 10
41.27499999999999
 20
-2.5399999999731193e-05
 30
0.0
  0
VERTEX
  8
LAYER1
 10
41.27499999999999
 20
2.5400000000175282e-05
 30
0.0
 42
0.4142135623730948
  0
VERTEX
  8
LAYER1
 10
38.417525399999995
 20
2.8575
 30
0.0
  0
VERTEX
  8
LAYER1
 10
35.5599746
 20
2.8575
 30
0.0
 42
0.4142135623730946
  0
VERTEX
  8
LAYER1
 10
32.70249999999999
 20
2.5400000000175282e-05
 30
0.0
  0
VERTEX
  8
LAYER1
 10
32.70249999999999
 20
-2.5399999999731193e-05
 30
0.0
 42
0.4142135623730948
  0
SEQEND
  8
LAYER1
  0
POLYLINE
  8
LAYER2
 62
242
 70
0
 66
1
 10
0.0
 20
0.0
 30
0.0
  0
VERTEX
  8
LAYER2
 10
-10.16
 20
-50.8
 30
0.0
  0
VERTEX
  8
LAYER2
 10
-10.16
 20
50.8
 30
0.0
  0
SEQEND
  8
LAYER2
  0
POLYLINE
  8
LAYER2
 62
242
 70
0
 66
1
 10
0.0
 20
0.0
 30
0.0
  0
VERTEX
  8
LAYER2
 10
10.16
 20
-50.8
 30
0.0
  0
VERTEX
  8
LAYER2
 10
10.16
 20
50.8
 30
0.0
  0
SEQEND
  8
LAYER2
  0
POLYLINE
  8
LAYER2
 62
242
 70
0
 66
1
 10
0.0
 20
0.0
 30
0.0
  0
VERTEX
  8
LAYER2
 10
-26.669999999999998
 20
-50.8
 30
0.0
  0
VERTEX
  8
LAYER2
 10
-26.669999999999998
 20
50.8
 30
0.0
  0
SEQEND
  8
LAYER2
  0
POLYLINE
  8
LAYER2
 62
242
 70
0
 66
1
 10
0.0
 20
0.0
 30
0.0
  0
VERTEX
  8
LAYER2
 10
26.669999999999998
 20
-50.8
 30
0.0
  0
VERTEX
  8
LAYER2
 10
26.669999999999998
 20
50.8
 30
0.0
  0
SEQEND
  8
LAYER2
  0
ENDSEC
  0
EOF
